<?xml version="1.0" encoding="UTF-8"?><svg xmlns="http://www.w3.org/2000/svg" viewBox="0 0 32.01 32"><g id="Layer_2"><rect width="32.01" height="32" rx="3.84" ry="3.84" style="fill:#fcfcfc; stroke-width:0px;"/></g><g id="_2"><path d="m15.49,19.28l1.33,5.95c.31,1.03.72,2.33,1.16,3.62.96,2.8,9.87,1.8,9.87,1.8l-2.28-8.65-2.65.07-.88-2.65h4.12s1.99,5.6,1.99,5.6h1.47s-4.05-13.87-4.05-13.87c-.41.39-.9.84-1.42,1.32-.71.66-1.48,1.36-2.2,1.99-.71.63-1.37,1.19-1.85,1.56-.35.27-.83.61-1.35.99-1.21.86-2.66,1.86-3.25,2.26Z" style="fill:#3f3f3f; stroke-width:0px;"/><path d="m3.99,30.65c1.18-.75,2.87-1.77,3.39-5.85.27-2.1.73-3.02,1.44-3.3-.1-.19-.2-.41-.3-.64-.51-1.15-1.02-2.72-1.02-4.44,0-.62.07-1.26.23-1.91.16-.64.43-1.29.81-1.91,1.11-1.82,2.5-3.01,3.99-3.73,1.49-.72,3.06-.98,4.55-.98,1.81,0,3.5.38,4.78.79,1.53-1.91,3.52-2.79,4.81-3.18.79-.24.56-.86.16-1.13-3.24-2.16-7.35-3.33-11.24-3.33-6.99,0-12.63,5.27-12.63,12.26,0,6.99,3.24,12.04.37,15.24-1.88,2.1-.55,2.87.66,2.1Z" style="fill:#3f3f3f; stroke-width:0px;"/><path d="m8.78,27.01s-.07,1.03.88,1.03c3.09.2,5.04-2.18,5.94-3.68l-1.24-5.52.28-.19s.05-.04.15-.1c.34-.23,1.22-.84,2.16-1.49.47-.33.95-.67,1.4-.99.44-.32.84-.61,1.13-.83.45-.34,1.1-.89,1.8-1.52.34-.3.7-.63,1.06-.95-1.06-.95-1.94-1.52-1.94-1.52.24-.63.53-1.2.84-1.71-1.17-.35-2.64-.65-4.18-.65-1.37,0-2.79.24-4.12.88-1.32.64-2.56,1.69-3.58,3.35-.33.54-.55,1.09-.69,1.64-.14.55-.2,1.11-.2,1.66,0,1.51.47,2.96.94,4.03.21.47.41.86.58,1.15.48.32.78,1.01.68,2.01-.15,1.47-1.91,3.39-1.91,3.39Z" style="fill:#3f3f3f; stroke-width:0px;"/></g></svg>